<?xml version="1.0" encoding="UTF-8"?>
<!DOCTYPE svg PUBLIC "-//W3C//DTD SVG 1.1//EN" "http://www.w3.org/Graphics/SVG/1.1/DTD/svg11.dtd">
<svg xmlns="http://www.w3.org/2000/svg" version="1.1" width="1024px" height="1024px" style="shape-rendering:geometricPrecision; text-rendering:geometricPrecision; image-rendering:optimizeQuality; fill-rule:evenodd; clip-rule:evenodd" xmlns:xlink="http://www.w3.org/1999/xlink">
<g><path style="opacity:0.951" fill="#000000" d="M 505.5,258.5 C 514.13,257.879 522.13,259.712 529.5,264C 585.892,298.193 642.559,331.86 699.5,365C 706.831,369.14 711.665,375.307 714,383.5C 714.667,415.5 714.667,447.5 714,479.5C 709.911,485.593 705.078,491.093 699.5,496C 693.833,500.333 688.167,504.667 682.5,509C 680.655,510.128 678.655,510.628 676.5,510.5C 676.833,480.493 676.5,450.493 675.5,420.5C 627.153,448.911 579.32,477.911 532,507.5C 531.667,533.167 531.333,558.833 531,584.5C 530.167,585.333 529.333,586.167 528.5,587C 519.339,590.168 510.006,592.834 500.5,595C 497.518,595.498 494.518,595.665 491.5,595.5C 491.667,566.165 491.5,536.831 491,507.5C 443.583,477.872 395.749,448.872 347.5,420.5C 346.667,481.831 346.167,543.164 346,604.5C 345.311,605.357 344.478,606.023 343.5,606.5C 333.746,604.286 324.746,600.452 316.5,595C 313.143,591.801 310.643,587.968 309,583.5C 308.333,517.167 308.333,450.833 309,384.5C 310.859,377.639 314.692,372.139 320.5,368C 375.833,334.955 430.833,301.622 485.5,268C 492.12,264.498 498.787,261.332 505.5,258.5 Z M 509.5,299.5 C 557.753,327.755 605.753,356.422 653.5,385.5C 606.725,415.215 559.391,443.882 511.5,471.5C 463.464,443.349 415.464,414.849 367.5,386C 414.998,357.418 462.332,328.585 509.5,299.5 Z"/></g>
<g><path style="opacity:0.938" fill="#000000" d="M 751.5,415.5 C 753.527,415.338 755.527,415.505 757.5,416C 776.8,431.59 782.633,451.424 775,475.5C 767.03,494.09 756.03,510.756 742,525.5C 710.002,556.262 674.169,581.762 634.5,602C 571.224,633.808 504.224,654.308 433.5,663.5C 434.313,664.814 435.313,665.981 436.5,667C 460.61,680.557 484.276,694.89 507.5,710C 510.751,712.452 514.251,712.952 518,711.5C 569.135,680.145 620.302,649.145 671.5,618.5C 673.149,617.352 674.649,616.019 676,614.5C 676.333,606.833 676.667,599.167 677,591.5C 688.297,582.579 699.797,573.745 711.5,565C 712.448,564.517 713.448,564.351 714.5,564.5C 714.667,585.503 714.5,606.503 714,627.5C 712.665,634.327 709.165,639.827 703.5,644C 645.344,678.266 587.677,713.266 530.5,749C 520.723,754.329 510.723,754.829 500.5,750.5C 454.611,721.727 408.611,693.227 362.5,665C 332.002,664.48 303.336,657.146 276.5,643C 256.436,629.575 246.936,610.742 248,586.5C 249.018,580.427 250.352,574.427 252,568.5C 261.153,549.688 273.653,533.521 289.5,520C 291.134,519.506 292.801,519.34 294.5,519.5C 294.657,520.873 294.49,522.207 294,523.5C 264.752,572.135 276.919,605.302 330.5,623C 349.747,627.285 369.247,629.452 389,629.5C 495.739,625.257 592.239,592.423 678.5,531C 700,514.833 718.833,496 735,474.5C 746.897,456.639 752.397,436.972 751.5,415.5 Z"/></g>
</svg>
