<?xml version="1.0" encoding="UTF-8"?>
<!DOCTYPE svg PUBLIC "-//W3C//DTD SVG 1.1//EN" "http://www.w3.org/Graphics/SVG/1.1/DTD/svg11.dtd">
<svg xmlns="http://www.w3.org/2000/svg" version="1.1" width="623px" height="591px" style="shape-rendering:geometricPrecision; text-rendering:geometricPrecision; image-rendering:optimizeQuality; fill-rule:evenodd; clip-rule:evenodd" xmlns:xlink="http://www.w3.org/1999/xlink">
<g><path style="opacity:0.951" fill="#000000" d="M 305.5,43.5 C 314.13,42.8789 322.13,44.7123 329.5,49C 385.892,83.1933 442.559,116.86 499.5,150C 506.831,154.14 511.665,160.307 514,168.5C 514.667,200.5 514.667,232.5 514,264.5C 509.911,270.593 505.078,276.093 499.5,281C 493.833,285.333 488.167,289.667 482.5,294C 480.655,295.128 478.655,295.628 476.5,295.5C 476.833,265.493 476.5,235.493 475.5,205.5C 427.153,233.911 379.32,262.911 332,292.5C 331.667,318.167 331.333,343.833 331,369.5C 330.167,370.333 329.333,371.167 328.5,372C 319.339,375.168 310.006,377.834 300.5,380C 297.518,380.498 294.518,380.665 291.5,380.5C 291.667,351.165 291.5,321.831 291,292.5C 243.583,262.872 195.749,233.872 147.5,205.5C 146.667,266.831 146.167,328.164 146,389.5C 145.311,390.357 144.478,391.023 143.5,391.5C 133.746,389.286 124.746,385.452 116.5,380C 113.143,376.801 110.643,372.968 109,368.5C 108.333,302.167 108.333,235.833 109,169.5C 110.859,162.639 114.692,157.139 120.5,153C 175.833,119.955 230.833,86.622 285.5,53C 292.12,49.4982 298.787,46.3316 305.5,43.5 Z M 309.5,84.5 C 357.753,112.755 405.753,141.422 453.5,170.5C 406.725,200.215 359.391,228.882 311.5,256.5C 263.464,228.349 215.464,199.849 167.5,171C 214.998,142.418 262.332,113.585 309.5,84.5 Z"/></g>
<g><path style="opacity:0.938" fill="#000000" d="M 551.5,200.5 C 553.527,200.338 555.527,200.505 557.5,201C 576.8,216.59 582.633,236.424 575,260.5C 567.03,279.09 556.03,295.756 542,310.5C 510.002,341.262 474.169,366.762 434.5,387C 371.224,418.808 304.224,439.308 233.5,448.5C 234.313,449.814 235.313,450.981 236.5,452C 260.61,465.557 284.276,479.89 307.5,495C 310.751,497.452 314.251,497.952 318,496.5C 369.135,465.145 420.302,434.145 471.5,403.5C 473.149,402.352 474.649,401.019 476,399.5C 476.333,391.833 476.667,384.167 477,376.5C 488.297,367.579 499.797,358.745 511.5,350C 512.448,349.517 513.448,349.351 514.5,349.5C 514.667,370.503 514.5,391.503 514,412.5C 512.665,419.327 509.165,424.827 503.5,429C 445.344,463.266 387.677,498.266 330.5,534C 320.723,539.329 310.723,539.829 300.5,535.5C 254.611,506.727 208.611,478.227 162.5,450C 132.002,449.48 103.336,442.146 76.5,428C 56.4356,414.575 46.9356,395.742 48,371.5C 49.0183,365.427 50.3516,359.427 52,353.5C 61.1532,334.688 73.6532,318.521 89.5,305C 91.1341,304.506 92.8008,304.34 94.5,304.5C 94.6567,305.873 94.49,307.207 94,308.5C 64.7521,357.135 76.9188,390.302 130.5,408C 149.747,412.285 169.247,414.452 189,414.5C 295.739,410.257 392.239,377.423 478.5,316C 500,299.833 518.833,281 535,259.5C 546.897,241.639 552.397,221.972 551.5,200.5 Z"/></g>
</svg>
